<?xml version="1.0" standalone="no"?>
<!DOCTYPE svg PUBLIC "-//W3C//DTD SVG 20010904//EN"
 "http://www.w3.org/TR/2001/REC-SVG-20010904/DTD/svg10.dtd">
<svg version="1.0" xmlns="http://www.w3.org/2000/svg"
 width="480.000000pt" height="480.000000pt" viewBox="0 0 480.000000 480.000000"
 preserveAspectRatio="xMidYMid meet">
<metadata>
Created by potrace 1.16, written by Peter Selinger 2001-2019
</metadata>
<g transform="translate(0.000000,480.000000) scale(0.100000,-0.100000)"
fill="#000000" stroke="none">
<path d="M762 4229 c-69 -34 -104 -71 -138 -144 l-24 -50 0 -1575 0 -1575 24
-50 c34 -73 69 -110 138 -144 l61 -31 1577 0 1577 0 61 31 c69 34 104 71 138
144 l24 50 0 1576 0 1576 -31 61 c-34 69 -71 104 -144 138 l-50 24 -1576 0
-1576 0 -61 -31z m3214 -111 c39 -21 82 -71 92 -106 9 -35 9 -3069 0 -3104
-10 -35 -53 -85 -92 -106 -29 -16 -135 -17 -1566 -17 -844 0 -1547 3 -1562 7
-35 10 -85 53 -106 92 -16 29 -17 136 -20 1521 -2 820 0 1518 3 1552 10 94 62
158 142 173 21 5 722 7 1558 6 1415 -1 1522 -2 1551 -18z"/>
<path d="M1373 3780 c-113 -17 -213 -91 -265 -198 -30 -61 -33 -74 -33 -162 1
-83 4 -102 29 -152 35 -73 100 -139 174 -175 51 -25 68 -28 157 -28 121 0 167
18 249 95 127 120 150 314 55 462 -49 76 -142 139 -224 153 -75 12 -90 13
-142 5z m167 -154 c91 -45 142 -147 121 -246 -31 -152 -187 -231 -327 -166
-143 66 -177 245 -70 363 74 81 176 99 276 49z"/>
<path d="M2855 2986 c-79 -19 -146 -48 -217 -97 l-58 -39 0 55 0 55 -315 0
-315 0 0 -895 0 -895 325 0 325 0 0 500 c0 331 4 517 11 552 24 114 73 169
166 189 119 25 212 -20 244 -118 10 -28 14 -173 17 -580 l3 -543 294 0 295 0
0 57 0 57 30 -29 30 -29 0 535 c0 553 -7 676 -45 807 -47 162 -151 295 -279
357 -39 19 -98 42 -131 51 -84 22 -303 28 -380 10z m317 -131 c228 -48 334
-183 373 -475 11 -78 15 -229 15 -592 l0 -488 -195 0 -195 0 0 459 c0 266 -4
481 -10 511 -23 122 -83 204 -180 249 -47 21 -69 25 -145 25 -176 -2 -277 -71
-338 -232 -21 -55 -22 -74 -25 -534 l-3 -478 -195 0 -194 0 0 765 0 765 185 0
185 0 0 -115 0 -115 53 0 52 0 38 60 c60 94 156 161 278 194 70 19 216 20 301
1z"/>
<path d="M1110 2065 l0 -895 325 0 325 0 0 895 0 895 -325 0 -325 0 0 -895z
m520 0 l0 -765 -195 0 -195 0 0 765 0 765 195 0 195 0 0 -765z"/>
</g>
</svg>
